<svg width="2292" height="297" viewBox="0 0 2292 297" fill="none" xmlns="http://www.w3.org/2000/svg">
<path d="M351.331 131.338C351.331 142.648 349.241 153.908 344.811 164.318C343.601 167.158 342.221 169.938 340.571 172.618C323.971 199.518 299.901 213.608 268.381 214.718C257.231 215.108 246.051 214.788 234.891 214.788C233.271 214.788 231.651 214.788 229.691 214.788C232.231 221.298 234.801 227.228 236.861 233.328C240.421 243.888 241.761 254.668 239.381 265.768C234.931 286.518 205.761 302.728 183.901 287.948C174.771 281.768 167.881 273.478 161.301 264.838C153.131 254.108 145.601 242.878 136.061 233.238C123.751 220.808 109.311 213.738 91.4011 214.708C85.4211 215.038 79.4011 214.758 73.4111 214.758C54.6311 214.748 44.6011 204.798 44.5911 186.158C44.5811 148.828 44.5311 111.498 44.6811 74.1782C44.7011 70.0982 43.7911 68.3782 39.4111 67.8082C30.9511 66.6882 22.8711 64.0382 15.6811 59.1882C2.34106 50.1882 -0.498926 36.1881 8.35107 22.7281C11.7711 17.5281 16.0811 13.1182 21.1811 9.54816C35.0011 -0.141843 49.5211 2.91816 58.3511 17.3282C62.5011 24.0982 65.3311 31.5081 66.0911 39.2881C66.6811 45.2681 69.1811 46.1982 74.5411 46.1882C137.531 46.0182 200.531 46.6482 263.511 45.9182C309.541 45.3782 343.991 77.4082 350.471 114.878V114.888C350.801 116.618 351.311 118.298 351.311 120.058L351.331 131.338ZM172.381 71.0482C172.381 71.0382 172.381 71.0282 172.381 71.0182C139.721 71.0182 107.071 71.0282 74.4111 70.9982C71.6211 70.9982 69.3911 70.6581 69.4111 74.8981C69.5611 111.888 69.5211 148.878 69.4311 185.868C69.4211 188.128 71.2711 189.938 73.5311 189.888C80.5011 189.728 87.4811 189.958 94.451 189.828C113.441 189.458 129.971 195.888 144.641 207.658C158.061 218.428 168.101 232.138 178.221 245.798C183.381 252.758 188.451 259.808 195.211 265.378C199.341 268.788 203.881 269.248 208.741 266.948C213.491 264.708 215.681 260.958 215.571 255.768C215.511 252.768 215.391 249.818 214.711 246.848C212.441 236.998 207.941 228.138 203.311 219.258C201.141 215.108 198.391 212.848 193.621 212.038C185.951 210.728 181.901 204.288 183.391 197.018C184.701 190.598 190.981 186.868 198.301 187.798C224.341 191.088 250.581 191.388 276.561 188.728C305.051 185.818 328.081 160.378 326.961 128.798C325.761 95.0482 299.781 71.1082 265.861 71.0682C234.691 71.0182 203.531 71.0482 172.381 71.0482ZM43.3711 46.6282C45.0711 47.0182 45.4811 46.0182 45.2311 44.6682C44.1311 38.7582 42.7311 32.9382 39.3511 27.8282C38.4811 26.5082 37.2611 25.3181 35.6211 26.2281C31.1611 28.7181 27.6011 32.1781 25.4611 36.8781C24.7211 38.4881 25.7411 39.7781 27.0611 40.6881C31.9811 44.0581 37.6111 45.5182 43.3711 46.6282Z" fill="#FF6F61"/>
<path d="M1128.41 91.2201C1168.63 62.0701 1199.01 65.1101 1234.01 101.64C1238.14 96.6101 1242.41 91.7301 1247.63 87.8301C1270.69 70.6201 1295.9 66.4401 1322.51 77.4601C1348.85 88.3601 1364.14 108.62 1368.37 137.03C1369.48 144.51 1369.04 152 1369.06 159.48C1369.14 185.81 1369.1 212.14 1369.08 238.47C1369.07 248.67 1365.13 252.23 1353.97 252.2C1343.37 252.18 1339.48 248.48 1339.48 238.33C1339.47 207.67 1339.57 177 1339.45 146.34C1339.37 124.31 1324.36 106.19 1302.92 101.84C1282.08 97.6101 1260.95 108.74 1252.18 128.58C1249.37 134.94 1248.4 141.67 1248.39 148.55C1248.36 178.55 1248.32 208.54 1248.43 238.54C1248.45 243.91 1247.76 249.07 1242.17 250.89C1235.64 253.01 1228.7 253.78 1222.63 249.17C1219.6 246.87 1219.15 243.38 1219.16 239.71C1219.22 208.88 1219.23 178.05 1219.18 147.22C1219.14 123.45 1201.44 103.39 1178.88 101.42C1153.77 99.2301 1132.95 114.8 1128.6 139.16C1128.08 142.08 1128.15 145.13 1128.14 148.13C1128.1 178.29 1128.12 208.46 1128.1 238.62C1128.09 248.06 1124.23 252 1114.82 252.12C1111.34 252.16 1107.79 252.5 1104.53 250.78C1099.81 248.29 1098.47 244.1 1098.48 239.08C1098.54 209.92 1098.52 180.75 1098.52 151.59C1098.52 130.59 1098.49 109.59 1098.55 88.6001C1098.58 79.4001 1102.48 75.6201 1111.69 75.5801C1125.08 75.5201 1127.31 77.5601 1128.41 91.2201Z" fill="#FF6F61"/>
<path d="M518.34 91.3402C524.34 86.3102 529.78 82.2702 535.71 78.9202C561.42 64.3702 594.23 72.6902 614.28 91.3502C617.64 94.4802 620.72 97.9202 623.93 101.21C627 97.9402 629.82 94.3802 633.18 91.4402C655.3 72.0902 680.68 66.1902 708.47 75.8102C736.27 85.4302 752.54 105.81 758.01 134.67C758.81 138.89 758.94 143.29 758.96 147.6C759.04 177.76 759.01 207.92 759 238.08C759 248.26 755.41 251.77 745.1 251.78C743.93 251.78 742.77 251.79 741.6 251.78C733.39 251.68 729.43 247.72 729.42 239.41C729.39 208.92 729.43 178.42 729.4 147.93C729.38 122.73 713.6 104.71 688.58 101.21C666.22 98.0902 642.93 115.31 639.24 137.69C638.62 141.48 638.3 145.27 638.3 149.12C638.35 178.95 638.33 208.77 638.32 238.6C638.32 248.34 634.88 251.74 625.08 251.77C623.75 251.77 622.41 251.78 621.08 251.77C612.87 251.68 609.16 248.04 609.16 239.86C609.13 209.03 609.19 178.21 609.13 147.38C609.1 133.51 604.31 121.52 593.68 112.43C579.38 100.21 563.05 97.2102 545.72 104.65C528.44 112.07 518.58 125.68 518.24 144.63C517.7 174.78 518.07 204.95 518.06 235.1C518.06 249.45 515.61 251.85 501.09 251.74C498.94 251.72 496.78 251.88 494.74 250.82C490.24 248.48 488.45 244.69 488.45 239.78C488.47 189.13 488.44 138.47 488.48 87.8202C488.49 79.5602 492.58 75.5902 500.77 75.5102C502.6 75.4902 504.44 75.4802 506.27 75.5102C513.56 75.6402 517.54 79.5102 518.03 86.8902C518.09 88.0202 518.18 89.1702 518.34 91.3402Z" fill="#FF6F61"/>
<path d="M930.42 228.16C923.73 234.19 917.79 239.45 911 243.6C875.72 265.22 828.18 256.76 801.45 224.1C773.27 189.67 774.48 133.73 803.68 100.37C830.17 70.1003 885.72 56.9803 925.29 94.3703C926.69 95.7003 928.15 96.9703 930.39 99.0003C930.39 94.4503 930.32 90.8703 930.4 87.2903C930.58 79.8103 934.81 75.7003 942.33 75.5903C944.33 75.5603 946.33 75.5603 948.33 75.5903C955.11 75.7203 959.21 79.4503 959.93 86.1303C960 86.7903 959.98 87.4603 959.98 88.1303C959.97 138.6 959.98 189.08 959.93 239.55C959.92 247.85 955.9 251.71 947.61 251.8C945.61 251.82 943.61 251.85 941.61 251.79C934.94 251.59 930.74 247.58 930.44 240.9C930.27 237 930.42 233.07 930.42 228.16ZM930.47 163.96C930.32 159.74 930.13 155.62 929.48 151.47C921.61 101.05 867.76 89.5003 836.43 110.79C814.52 125.68 808.31 147.76 811.08 172.95C816.23 219.75 861.91 236.55 896.79 220.61C920.69 209.68 929.62 189 930.47 163.96Z" fill="#FF6F61"/>
<path d="M1750.37 171.01C1749.34 200.48 1735.53 230.13 1701.36 246.72C1651.77 270.79 1582.02 248.3 1572.62 177.2C1568.93 149.34 1574.9 123.35 1593.68 101.58C1613.43 78.6902 1639.28 69.8902 1668.82 72.0802C1696.83 74.1602 1719.41 86.7202 1735.17 110.32C1745.93 126.43 1750.45 144.5 1750.37 171.01ZM1601.08 163.94C1601.06 168.49 1601.35 172.96 1602.24 177.39C1606.81 200.3 1619.25 216.83 1642.05 223.57C1665.46 230.48 1687.22 226.63 1704.59 208.53C1719.16 193.35 1722.96 174.38 1720.43 153.88C1714.2 103.48 1662.68 90.0902 1629.82 109.24C1609.06 121.36 1601.56 140.95 1601.08 163.94Z" fill="#FF6F61"/>
<path d="M1771.98 183.883C1771.98 149.553 1771.98 115.213 1771.97 80.8833C1775.61 72.1033 1790.64 68.6533 1797.66 75.0333C1800.58 77.6933 1801.3 81.1533 1801.29 85.0033C1801.22 115.823 1801.19 146.653 1801.26 177.473C1801.31 199.423 1815.56 217.223 1836.88 222.223C1864.53 228.703 1892.03 207.343 1892.23 178.923C1892.45 147.933 1892.34 116.943 1892.25 85.9533C1892.24 80.5933 1893.04 75.4133 1898.51 73.5333C1905.01 71.3033 1911.94 70.5833 1918.05 75.1233C1921.33 77.5633 1921.55 81.2733 1921.55 85.0633C1921.51 128.883 1921.52 172.703 1921.52 216.523C1921.52 223.523 1921.6 230.523 1921.49 237.513C1921.38 244.583 1917.32 248.623 1910.34 248.823C1908.51 248.873 1906.67 248.843 1904.84 248.833C1896.57 248.753 1892.57 244.853 1892.32 236.683C1892.29 235.593 1892.22 234.503 1892.14 232.773C1888.89 235.343 1886.22 237.533 1883.48 239.603C1853.53 262.213 1817.63 252.843 1795.68 232.583C1781.49 219.493 1773.87 203.043 1771.98 183.883Z" fill="#FF6F61"/>
<path d="M1468.04 159.68C1468.04 141.85 1467.93 124.02 1468.13 106.19C1468.17 102.42 1467.12 101.16 1463.36 101.47C1459.55 101.79 1455.7 101.65 1451.87 101.51C1444.69 101.24 1441.05 96.7003 1441.09 88.2603C1441.13 80.3303 1444.93 75.9303 1452.06 75.7003C1455.72 75.5803 1459.41 75.4503 1463.05 75.7403C1466.87 76.0503 1468.25 74.9503 1468.15 70.8503C1467.87 59.1903 1468.02 47.5203 1468.07 35.8603C1468.1 27.5403 1472 23.7003 1480.3 23.6203C1481.8 23.6103 1483.3 23.6103 1484.8 23.6203C1493.23 23.6903 1497.2 27.7203 1497.22 36.3003C1497.25 47.9603 1497.36 59.6303 1497.14 71.2903C1497.08 74.7903 1498.07 75.8203 1501.59 75.7603C1513.75 75.5503 1525.92 75.6603 1538.08 75.6903C1546.82 75.7103 1551.05 79.8903 1551.09 88.4303C1551.12 97.3503 1546.97 101.52 1537.97 101.54C1525.97 101.56 1513.97 101.67 1501.98 101.47C1498.45 101.41 1497.1 102.07 1497.12 106.04C1497.29 140.03 1497.19 174.03 1497.23 208.02C1497.24 218.42 1504.53 226.17 1514.32 226.44C1523.86 226.7 1531.65 218.87 1532.11 208.57C1532.57 198.13 1535.41 195.4 1545.79 195.39C1547.62 195.39 1549.46 195.33 1551.29 195.44C1556.88 195.8 1560.82 199.76 1561.25 205.37C1563.16 230.05 1544.83 252.33 1520.09 255.41C1495.21 258.51 1472.7 241.96 1468.62 217.13C1467.66 211.27 1468.09 205.16 1468.06 199.17C1467.99 186.01 1468.04 172.85 1468.04 159.68Z" fill="#FF6F61"/>
<path d="M1014.11 97.2201C1023.6 89.5501 1032.85 83.8001 1043.38 80.2801C1050.21 78.0001 1057.21 76.6101 1064.34 75.8701C1072.08 75.0601 1077.08 79.6901 1077.23 87.4901C1077.27 89.4901 1077.27 91.4901 1077.23 93.4901C1077.07 100.42 1073.67 104.7 1066.89 105.33C1034.98 108.25 1014.29 134.51 1014.16 165.82C1014.06 190.15 1014.13 214.48 1014.1 238.81C1014.09 248.1 1010.04 252.11 1000.65 252.15C997 252.17 993.24 252.56 989.94 250.51C986.24 248.21 984.57 244.73 984.57 240.41C984.57 189.42 984.54 138.42 984.6 87.4301C984.61 79.8401 988.96 75.7001 996.41 75.6001C998.58 75.5701 1000.74 75.5501 1002.91 75.6101C1009.5 75.7901 1013.76 79.9101 1014.09 86.5401C1014.24 89.6901 1014.11 92.8501 1014.11 97.2201Z" fill="#FF6F61"/>
<path d="M1421.12 163.57C1421.12 188.72 1421.13 213.87 1421.11 239.03C1421.1 248.1 1417.08 252.16 1408.09 252.28C1407.09 252.29 1406.09 252.29 1405.09 252.28C1395.72 252.22 1391.61 248.19 1391.59 238.94C1391.56 226.78 1391.59 214.62 1391.59 202.46C1391.6 164.98 1391.63 127.5 1391.59 90.0204C1391.58 84.6104 1392 79.1304 1397.72 76.9704C1403.86 74.6504 1410.49 74.2104 1416.48 77.7004C1420.46 80.0204 1421.19 84.2004 1421.17 88.6104C1421.11 113.6 1421.14 138.58 1421.14 163.57C1421.14 163.57 1421.13 163.57 1421.12 163.57Z" fill="#FF6F61"/>
<path d="M1978.75 163.57C1978.75 188.72 1978.76 213.87 1978.74 239.03C1978.73 248.1 1974.71 252.16 1965.72 252.28C1964.72 252.29 1963.72 252.29 1962.72 252.28C1953.35 252.22 1949.24 248.19 1949.22 238.94C1949.19 226.78 1949.22 214.62 1949.22 202.46C1949.23 164.98 1949.26 127.5 1949.22 90.0204C1949.21 84.6104 1949.63 79.1304 1955.35 76.9704C1961.49 74.6504 1968.12 74.2104 1974.11 77.7004C1978.09 80.0204 1978.82 84.2004 1978.8 88.6104C1978.74 113.6 1978.77 138.58 1978.77 163.57C1978.77 163.57 1978.76 163.57 1978.75 163.57Z" fill="#FF6F61"/>
<path d="M1406.13 9.87047C1420.72 9.80047 1430.5 20.3005 1428.28 33.6705C1426.76 42.8505 1418.91 49.1905 1407.79 50.2205C1391.87 51.6905 1379.64 37.8405 1384.42 23.7405C1387.24 15.4205 1395.85 9.92047 1406.13 9.87047Z" fill="#FF6F61"/>
<path d="M1963.76 9.87047C1978.35 9.80047 1988.13 20.3005 1985.91 33.6705C1984.39 42.8505 1976.54 49.1905 1965.42 50.2205C1949.5 51.6905 1937.27 37.8405 1942.05 23.7405C1944.87 15.4205 1953.48 9.92047 1963.76 9.87047Z" fill="#FF6F61"/>
<path d="M266.26 167.65C266.26 178.64 266.3 189.63 266.24 200.61C266.2 207.6 261.77 212.5 255.58 212.59C249.1 212.68 244.4 207.78 244.38 200.55C244.32 178.41 244.32 156.27 244.38 134.12C244.4 126.82 248.93 121.86 255.37 121.8C261.65 121.74 266.22 126.88 266.24 134.18C266.3 145.35 266.26 156.5 266.26 167.65Z" fill="#FF6F61"/>
<path d="M2035.54 163.415C2035.54 188.565 2035.55 213.715 2035.53 238.875C2035.52 247.945 2031.5 252.005 2022.51 252.125C2021.51 252.135 2020.51 252.135 2019.51 252.125C2010.14 252.065 2006.03 248.035 2006.01 238.785C2005.98 226.625 2006.01 214.465 2006.01 202.305C2006.02 164.825 2006.05 62.3451 2006.01 24.8651C2006 19.4551 2006.42 13.9751 2012.14 11.8151C2018.28 9.49511 2024.91 9.05511 2030.9 12.5451C2034.88 14.8651 2035.61 19.0451 2035.59 23.4551C2035.53 48.4451 2035.56 138.425 2035.56 163.415C2035.56 163.415 2035.55 163.415 2035.54 163.415Z" fill="#FF6F61"/>
<path d="M2092.54 163.415C2092.54 188.565 2092.55 213.715 2092.53 238.875C2092.52 247.945 2088.5 252.005 2079.51 252.125C2078.51 252.135 2077.51 252.135 2076.51 252.125C2067.14 252.065 2063.03 248.035 2063.01 238.785C2062.98 226.625 2063.01 214.465 2063.01 202.305C2063.02 164.825 2063.05 62.3451 2063.01 24.8651C2063 19.4551 2063.42 13.9751 2069.14 11.8151C2075.28 9.49511 2081.91 9.05511 2087.9 12.5451C2091.88 14.8651 2092.61 19.0451 2092.59 23.4551C2092.53 48.4451 2092.56 138.425 2092.56 163.415C2092.56 163.415 2092.55 163.415 2092.54 163.415Z" fill="#FF6F61"/>
<path fill-rule="evenodd" clip-rule="evenodd" d="M2142.59 170.723H2273.39C2283.33 170.723 2292 163.326 2292 153.385C2292 137.815 2288.62 123.897 2281.86 111.631C2275.11 99.3641 2265.37 89.6923 2252.67 82.6154C2239.97 75.5385 2224.56 72 2206.45 72C2188.61 72 2172.66 75.6564 2158.6 82.9692C2144.82 90.2821 2133.87 100.897 2125.76 114.815C2117.92 128.497 2114 144.892 2114 164C2114 183.108 2118.05 199.621 2126.16 213.538C2134.27 227.221 2145.36 237.718 2159.41 245.031C2173.74 252.344 2190.09 256 2208.47 256C2220.91 256 2232.26 254.467 2242.53 251.4C2252.8 248.097 2261.73 243.497 2269.29 237.6C2274.73 233.349 2279.45 228.644 2283.45 223.486C2286.31 219.804 2284.8 214.573 2280.63 212.471L2271.79 208C2268.08 206.129 2263.61 207.443 2261.01 210.678C2256.16 216.715 2250.13 221.796 2242.94 225.923C2233.75 231.113 2222.12 233.708 2208.07 233.708C2194.82 233.708 2183.2 230.877 2173.2 225.215C2163.47 219.554 2155.9 211.533 2150.49 201.154C2145.95 192.428 2143.31 182.284 2142.59 170.723ZM2262.76 148.077C2262.4 137.278 2259.99 128.078 2255.51 120.477C2250.91 111.985 2244.29 105.497 2235.64 101.015C2227.26 96.5333 2217.39 94.2923 2206.04 94.2923C2193.07 94.2923 2181.71 97.1231 2171.98 102.785C2162.52 108.446 2155.22 116.467 2150.09 126.846C2146.95 133.177 2144.78 140.254 2143.55 148.077H2262.76Z" fill="#FF6F61"/>
</svg>
